<?xml version="1.0" encoding="utf-8"?>
<!-- Generator: Adobe Illustrator 19.0.0, SVG Export Plug-In . SVG Version: 6.00 Build 0)  -->
<svg version="1.1" id="Layer_1" xmlns="http://www.w3.org/2000/svg" xmlns:xlink="http://www.w3.org/1999/xlink" x="0px" y="0px"
	 viewBox="0 0 238 571.4" style="enable-background:new 0 0 238 571.4;" xml:space="preserve">
<style type="text/css">
	.st0{clip-path:url(#SVGID_2_);}
	.st1{clip-path:url(#SVGID_4_);}
	.st2{clip-path:url(#SVGID_8_);}
	.st3{clip-path:url(#SVGID_12_);fill:none;stroke:#000000;stroke-width:2.102;stroke-linecap:round;stroke-dasharray:0.1,4.5;}
	.st4{clip-path:url(#SVGID_2_);fill:none;stroke:#000000;stroke-width:2.102;stroke-linecap:round;stroke-linejoin:round;}
	.st5{clip-path:url(#SVGID_14_);fill:none;stroke:#000000;stroke-width:2.102;stroke-linecap:round;stroke-dasharray:0.1,4.5;}
	.st6{clip-path:url(#SVGID_2_);fill:none;stroke:#FFFFFF;stroke-width:1.811;stroke-miterlimit:1;}
	.st7{font-family:'Steps-Mono-Mono';}
	.st8{font-size:10.5087px;}
	.st9{font-family:'RobotoMono-Regular';}
	.st10{font-size:8.9402px;}
	.st11{clip-path:url(#SVGID_2_);fill:none;stroke:#B6B6B6;stroke-linecap:round;stroke-linejoin:round;}
	.st12{opacity:0.67;clip-path:url(#SVGID_16_);}
	.st13{clip-path:url(#SVGID_18_);}
	.st14{clip-path:url(#SVGID_20_);}
	.st15{clip-path:url(#SVGID_2_);fill:none;stroke:#000000;stroke-linecap:round;stroke-linejoin:round;}
	.st16{clip-path:url(#SVGID_22_);}
	.st17{opacity:0.67;clip-path:url(#SVGID_26_);}
	.st18{clip-path:url(#SVGID_28_);}
	.st19{clip-path:url(#SVGID_30_);}
	.st20{opacity:0.67;clip-path:url(#SVGID_34_);}
	.st21{clip-path:url(#SVGID_36_);}
	.st22{fill:#FFFFFF;}
	.st23{font-family:'RobotoMono-Bold';}
	.st24{font-size:8.6421px;}
	.st25{clip-path:url(#SVGID_2_);fill:none;stroke:#B6B6B6;}
	.st26{opacity:0.5;clip-path:url(#SVGID_38_);}
	.st27{clip-path:url(#SVGID_40_);}
	.st28{font-family:'RobotoMono-Light';}
	.st29{font-size:5px;}
	.st30{clip-path:url(#SVGID_42_);}
	.st31{clip-path:url(#SVGID_44_);}
	.st32{clip-path:url(#SVGID_46_);}
	.st33{clip-path:url(#SVGID_48_);}
	.st34{clip-path:url(#SVGID_50_);}
</style>
<g>
	<defs>
		<rect id="SVGID_1_" x="-23" y="-29" width="792" height="612"/>
	</defs>
	<clipPath id="SVGID_2_">
		<use xlink:href="#SVGID_1_"  style="overflow:visible;"/>
	</clipPath>
	<g class="st0">
		<defs>
			<path id="SVGID_3_" d="M20.6,43.7c0,14.8,12,26.8,26.8,26.8c14.8,0,26.8-12,26.8-26.8c0-14.8-12-26.8-26.8-26.8
				C32.6,16.9,20.6,28.9,20.6,43.7"/>
		</defs>
		<clipPath id="SVGID_4_">
			<use xlink:href="#SVGID_3_"  style="overflow:visible;"/>
		</clipPath>
		<g class="st1">
			<defs>
				
					<rect id="SVGID_5_" x="4" y="13.6" transform="matrix(0.5983 0.8013 -0.8013 0.5983 54.8862 -15.5096)" width="77.9" height="66.7"/>
			</defs>
			<clipPath id="SVGID_6_">
				<use xlink:href="#SVGID_5_"  style="overflow:visible;"/>
			</clipPath>
			<g transform="matrix(1 0 2.980232e-08 1 -3.814697e-06 0)" style="clip-path:url(#SVGID_6_);">
				
					<image style="overflow:visible;" width="325" height="278" xlink:href="C384991F42397627.jpg"  transform="matrix(-0.1434 -0.1921 0.1922 -0.1435 39.5003 98.1517)">
				</image>
			</g>
		</g>
	</g>
	<g class="st0">
		<defs>
			<path id="SVGID_7_" d="M51.8,68.7c0,14.8,12,26.8,26.8,26.8c14.8,0,26.8-12,26.8-26.8c0-14.8-12-26.8-26.8-26.8
				C63.7,41.9,51.8,53.9,51.8,68.7"/>
		</defs>
		<clipPath id="SVGID_8_">
			<use xlink:href="#SVGID_7_"  style="overflow:visible;"/>
		</clipPath>
		<g class="st2">
			<defs>
				
					<rect id="SVGID_9_" x="42.9" y="39.8" transform="matrix(0.8013 -0.5983 0.5983 0.8013 -27.5131 63.5138)" width="77.9" height="66.7"/>
			</defs>
			<clipPath id="SVGID_10_">
				<use xlink:href="#SVGID_9_"  style="overflow:visible;"/>
			</clipPath>
			<g transform="matrix(1 -2.980232e-08 0 1 0 0)" style="clip-path:url(#SVGID_10_);">
				
					<image style="overflow:visible;" width="325" height="278" xlink:href="C384991F42397625.jpg"  transform="matrix(-0.1921 0.1434 -0.1435 -0.1922 133.0111 76.5829)">
				</image>
			</g>
		</g>
	</g>
	<g class="st0">
		<defs>
			<rect id="SVGID_11_" x="-23" y="-29" width="792" height="612"/>
		</defs>
		<clipPath id="SVGID_12_">
			<use xlink:href="#SVGID_11_"  style="overflow:visible;"/>
		</clipPath>
		<path class="st3" d="M31.5,32.4c-0.8,0.6-1.6,1.3-2.3,2.1C16.4,46.7,16.1,67,28.3,79.8c9.4,9.8,23.6,12.3,35.4,7.3"/>
	</g>
	<polyline class="st4" points="31.7,35.6 31.7,31.6 27.7,31.6 	"/>
	<g class="st0">
		<defs>
			<rect id="SVGID_13_" x="-23" y="-29" width="792" height="612"/>
		</defs>
		<clipPath id="SVGID_14_">
			<use xlink:href="#SVGID_13_"  style="overflow:visible;"/>
		</clipPath>
		<path class="st5" d="M96.4,82.8c0.8-0.6,1.6-1.3,2.3-2c12.7-12.3,13.1-32.6,0.8-45.4c-9.4-9.8-23.6-12.3-35.4-7.3"/>
	</g>
	<polyline class="st4" points="96.4,79.3 96.3,83.3 100.4,83.4 	"/>
	<polygon class="st6" points="52.6,50.1 51.9,50.7 52.7,51.6 53.2,51.1 53.3,49.6 51.8,48.1 50.4,48.2 49.4,49.2 49,53.9 48,54.9 
		47.7,54.9 46.5,53.7 46.5,53.4 47.2,52.7 46.3,51.9 45.8,52.4 45.8,53.8 47.6,55.6 49,55.6 50.2,54.4 50.5,49.7 51.3,48.9 
		51.7,48.9 52.5,49.8 	"/>
	<polygon class="st6" points="51.4,58.2 56,53.6 56.3,53.5 57.1,54.3 57.5,53.8 54.9,51.3 54.5,51.7 55.2,52.4 55.2,52.8 50.6,57.4 
		50.3,57.4 49.5,56.7 49.1,57.1 51.7,59.7 52.1,59.3 51.4,58.5 	"/>
	<polygon class="st6" points="55.8,63.9 61.7,58 61,57.3 57.4,58.9 57.3,58.8 58.9,55.2 58.2,54.5 52.3,60.4 53.1,61.2 56.3,58 
		57,57.3 57,57.3 56,59.8 56.4,60.2 58.8,59.2 58.9,59.3 58.2,59.9 55,63.1 	"/>
	<polygon class="st6" points="59.9,66.7 65.1,61.5 64.3,60.6 59,65.9 58.8,65.9 57.7,64.9 57.7,64.6 63,59.3 62.2,58.5 57,63.7 
		57,65.1 58.6,66.6 	"/>
	<polygon class="st6" points="63.5,70.5 61.5,68.5 66.9,63.2 66.1,62.4 60.2,68.2 62.9,71 	"/>
	<path class="st6" d="M68.3,71.3l-1.2-1.2l3.5-2.3l0.1,0.1L68.3,71.3z M67.3,74.7l4.4-6.6l-1.4-1.4l-6.6,4.4l-0.4,0.4l0.7,0.7
		l0.4-0.4l2.1-1.4l1.4,1.4l-1.4,2.1l-0.4,0.4L67,75L67.3,74.7z"/>
	<polygon class="st6" points="75.9,73.1 76.3,72.7 73.2,69.5 72.8,70 74,71.2 68.5,76.6 69.3,77.3 74.7,71.9 	"/>
	<polygon class="st6" points="73.7,80.5 78.3,75.9 78.6,75.8 79.4,76.6 79.8,76.1 77.2,73.5 76.8,74 77.5,74.7 77.5,75 72.9,79.7 
		72.5,79.7 71.8,79 71.4,79.4 73.9,82 74.4,81.6 73.6,80.8 	"/>
	<path class="st6" d="M78.5,85.3l4.6-4.6l0-1.3l-1.6-1.6l-1.3,0l-4.6,4.6l0,1.3l1.6,1.6L78.5,85.3z M82.3,79.5l0,0.3l-4.7,4.7
		l-0.3,0l-1-1l0-0.3l4.7-4.7l0.3,0L82.3,79.5z"/>
	<polygon class="st6" points="81.6,89.7 87.5,83.8 86.7,83 83.1,86.6 82.4,87.4 82.4,87.3 82.8,86.5 85.2,81.5 84.4,80.7 78.5,86.6 
		79.3,87.4 82.8,83.9 83.5,83.2 83.5,83.2 83.1,84.1 80.8,88.9 	"/>
	<g class="st0">
		<text transform="matrix(0.7071 0.7071 -0.7071 0.7071 44.7888 52.8463)" class="st7 st8">SIMULATION</text>
	</g>
	<polygon class="st6" points="43.6,32.1 41.6,30.2 47,24.8 46.2,24 40.3,29.9 43,32.7 	"/>
	<polygon class="st6" points="46.3,34.7 51,30.1 51.3,30.1 52,30.8 52.5,30.4 49.9,27.8 49.5,28.2 50.2,29 50.2,29.3 45.5,33.9 
		45.2,33.9 44.5,33.2 44,33.6 46.6,36.2 47.1,35.8 46.3,35 	"/>
	<path class="st6" d="M53.1,37.7l0-1.1l0.7,0l1.8-1.8l0-1.3l-2.2-2.2l-5.9,5.9l2.3,2.3l1.3,0L53.1,37.7z M51.5,34.8l2.3-2.3l1.1,1.1
		l0,0.3l-2,2l-0.3,0L51.5,34.8z M48.9,37.7l0-0.3l2.1-2.1l1.3,1.3l0,0.3l-2,2l-0.3,0L48.9,37.7z"/>
	<path class="st6" d="M55,38.7l2.5-2.5l1.2,1.2l0,0.3l-2.2,2.2l-0.3,0L55,38.7z M54.8,43.4l1.2-2.9l1.2,0l2.1-2.1l0-1.3L57.1,35
		l-5.9,5.9l0.8,0.8l2.5-2.5l0.9,0.9l-1.5,2.6l-0.4,0.4l0.9,0.9L54.8,43.4z"/>
	<path class="st6" d="M59.6,44.1l-1.2-1.2l3.5-2.3l0.1,0.1L59.6,44.1z M58.6,47.5l4.4-6.6l-1.4-1.4L55,43.9l-0.4,0.4l0.7,0.7
		l0.4-0.4l2.1-1.4l1.4,1.4l-1.4,2.1l-0.4,0.4l0.8,0.8L58.6,47.5z"/>
	<path class="st6" d="M62.4,46.2l2.5-2.5l1.2,1.2l0,0.3l-2.2,2.2l-0.3,0L62.4,46.2z M62.3,50.9l1.2-2.9l1.2,0l2.1-2.1l0-1.3
		l-2.2-2.2l-5.9,5.9l0.8,0.8l2.5-2.5l0.9,0.9l-1.5,2.6l-0.4,0.4l0.9,0.9L62.3,50.9z"/>
	<polygon class="st6" points="66.6,51.6 71.2,49.8 71.5,49.4 70.9,48.7 70.5,49.1 67.2,50.5 67.1,50.3 68.4,47 68.8,46.6 68,45.9 
		67.6,46.2 65.9,50.7 63.5,53.1 64.3,53.9 	"/>
	<g class="st0">
		<text transform="matrix(0.7071 0.7071 -0.7071 0.7071 39.7482 29.3664)" class="st7 st8">LIBRARY</text>
	</g>
	<g class="st0">
		<text transform="matrix(1 0 0 1 17.9365 110.2114)"><tspan x="0" y="0" class="st9 st10">--</tspan><tspan x="10" y="0" class="st9 st10">-</tspan></text>
	</g>
	<g class="st0">
		<text transform="matrix(1 0 0 1 92.0376 110.2114)"><tspan x="0" y="0" class="st9 st10">--</tspan><tspan x="10" y="0" class="st9 st10">-</tspan></text>
	</g>
	<g class="st0">
		<text transform="matrix(1 0 0 1 17.9365 119.1514)"><tspan x="0" y="0" class="st9 st10">--</tspan><tspan x="10" y="0" class="st9 st10">-</tspan></text>
	</g>
	<g class="st0">
		<text transform="matrix(1 0 0 1 92.0376 119.1514)"><tspan x="0" y="0" class="st9 st10">--</tspan><tspan x="10" y="0" class="st9 st10">-</tspan></text>
	</g>
	<line class="st11" x1="92.3" y1="358.5" x2="92.3" y2="529.7"/>
	<g class="st0">
		<defs>
			<rect id="SVGID_15_" x="-23" y="-29" width="792" height="612"/>
		</defs>
		<clipPath id="SVGID_16_">
			<use xlink:href="#SVGID_15_"  style="overflow:visible;"/>
		</clipPath>
		<g class="st12">
			<g>
				<defs>
					<rect id="SVGID_17_" x="-4.4" y="527.7" width="248.5" height="44.7"/>
				</defs>
				<clipPath id="SVGID_18_">
					<use xlink:href="#SVGID_17_"  style="overflow:visible;"/>
				</clipPath>
				<rect x="-3.4" y="528.7" class="st13" width="246.4" height="42.7"/>
			</g>
		</g>
		<g class="st12">
			<g>
				<defs>
					<rect id="SVGID_19_" x="-4.4" y="129.8" width="251.5" height="32.4"/>
				</defs>
				<clipPath id="SVGID_20_">
					<use xlink:href="#SVGID_19_"  style="overflow:visible;"/>
				</clipPath>
				<rect x="-3.4" y="130.8" class="st14" width="249.5" height="30.4"/>
			</g>
		</g>
	</g>
	<rect x="-2.5" y="130.7" class="st0" width="248.7" height="30.5"/>
	<rect x="-2.5" y="130.7" class="st15" width="248.7" height="30.5"/>
	<rect x="-3.5" y="528.5" class="st0" width="246.7" height="43.2"/>
	<rect x="-3.5" y="528.5" class="st15" width="246.7" height="43.2"/>
	<g class="st0">
		<defs>
			<rect id="SVGID_21_" x="-2.5" y="130.7" width="249" height="30.5"/>
		</defs>
		<clipPath id="SVGID_22_">
			<use xlink:href="#SVGID_21_"  style="overflow:visible;"/>
		</clipPath>
		<g class="st16">
			<defs>
				
					<rect id="SVGID_23_" x="42" y="30.4" transform="matrix(-0.5262 0.8504 -0.8504 -0.5262 310.1769 119.0007)" width="159.9" height="231"/>
			</defs>
			<clipPath id="SVGID_24_">
				<use xlink:href="#SVGID_23_"  style="overflow:visible;"/>
			</clipPath>
			<g transform="matrix(1 -2.980232e-08 2.980232e-08 1 0 0)" style="clip-path:url(#SVGID_24_);">
				
					<image style="overflow:visible;" width="425" height="614" xlink:href="C384991F4239762B.jpg"  transform="matrix(0.198 -0.3199 0.3199 0.198 -18.351 153.1157)">
				</image>
			</g>
		</g>
	</g>
	<rect x="-2.5" y="130.7" class="st15" width="249" height="30.5"/>
	<g class="st0">
		<defs>
			<rect id="SVGID_25_" x="-23" y="-29" width="792" height="612"/>
		</defs>
		<clipPath id="SVGID_26_">
			<use xlink:href="#SVGID_25_"  style="overflow:visible;"/>
		</clipPath>
		<g class="st17">
			<g>
				<defs>
					<rect id="SVGID_27_" x="-4.4" y="129.8" width="251.9" height="32.4"/>
				</defs>
				<clipPath id="SVGID_28_">
					<use xlink:href="#SVGID_27_"  style="overflow:visible;"/>
				</clipPath>
				<rect x="-3.4" y="130.8" class="st18" width="249.9" height="30.4"/>
			</g>
		</g>
	</g>
	<g class="st0">
		<defs>
			<rect id="SVGID_29_" x="-3.5" y="528.5" width="249" height="43.2"/>
		</defs>
		<clipPath id="SVGID_30_">
			<use xlink:href="#SVGID_29_"  style="overflow:visible;"/>
		</clipPath>
		<g class="st19">
			<defs>
				
					<rect id="SVGID_31_" x="35.5" y="431.2" transform="matrix(-0.5262 0.8504 -0.8504 -0.5262 652.3589 736.7079)" width="170.8" height="237.8"/>
			</defs>
			<clipPath id="SVGID_32_">
				<use xlink:href="#SVGID_31_"  style="overflow:visible;"/>
			</clipPath>
			<g transform="matrix(1 2.980232e-08 0 1 0 0)" style="clip-path:url(#SVGID_32_);">
				
					<image style="overflow:visible;" width="454" height="632" xlink:href="C384991F4239762D.jpg"  transform="matrix(0.198 -0.3199 0.3199 0.198 -25.0923 560.1523)">
				</image>
			</g>
		</g>
	</g>
	<rect x="-3.5" y="528.5" class="st15" width="249" height="43.2"/>
	<g class="st0">
		<defs>
			<rect id="SVGID_33_" x="-23" y="-29" width="792" height="612"/>
		</defs>
		<clipPath id="SVGID_34_">
			<use xlink:href="#SVGID_33_"  style="overflow:visible;"/>
		</clipPath>
		<g class="st20">
			<g>
				<defs>
					<rect id="SVGID_35_" x="-4.4" y="527.7" width="250.9" height="44.7"/>
				</defs>
				<clipPath id="SVGID_36_">
					<use xlink:href="#SVGID_35_"  style="overflow:visible;"/>
				</clipPath>
				<rect x="-3.4" y="528.7" class="st21" width="248.9" height="42.7"/>
			</g>
		</g>
	</g>
	<g class="st0">
		<text transform="matrix(1 0 0 1 19.3867 149.4873)"><tspan x="0" y="0" class="st22 st23 st24">! </tspan><tspan x="10.4" y="0" class="st22 st23 st24">S</tspan><tspan x="15.7" y="0" class="st22 st23 st24">C</tspan><tspan x="20.9" y="0" class="st22 st23 st24">A</tspan><tspan x="26.2" y="0" class="st22 st23 st24">N </tspan><tspan x="36.6" y="0" class="st22 st23 st24">T</tspan><tspan x="41.9" y="0" class="st22 st23 st24">H</tspan><tspan x="46.9" y="0" class="st22 st23 st24">I</tspan><tspan x="51.9" y="0" class="st22 st23 st24">S </tspan><tspan x="62.3" y="0" class="st22 st23 st24">L</tspan><tspan x="67.3" y="0" class="st22 st23 st24">I</tspan><tspan x="72.3" y="0" class="st22 st23 st24">B</tspan><tspan x="77.6" y="0" class="st22 st23 st24">R</tspan><tspan x="83.1" y="0" class="st22 st23 st24">A</tspan><tspan x="88.5" y="0" class="st22 st23 st24">R</tspan><tspan x="93.6" y="0" class="st22 st23 st24">Y </tspan><tspan x="104" y="0" class="st22 st23 st24">B</tspan><tspan x="109.4" y="0" class="st22 st23 st24">O</tspan><tspan x="114.7" y="0" class="st22 st23 st24">O</tspan><tspan x="120" y="0" class="st22 st23 st24">K </tspan><tspan x="130.3" y="0" class="st22 st23 st24">A</tspan><tspan x="135.2" y="0" class="st22 st23 st24">T </tspan><tspan x="145.5" y="0" class="st22 st23 st24">T</tspan><tspan x="150.9" y="0" class="st22 st23 st24">H</tspan><tspan x="156.1" y="0" class="st22 st23 st24">E </tspan><tspan x="166.5" y="0" class="st22 st23 st24">K</tspan><tspan x="171.8" y="0" class="st22 st23 st24">I</tspan><tspan x="176.7" y="0" class="st22 st23 st24">O</tspan><tspan x="182" y="0" class="st22 st23 st24">S</tspan><tspan x="187.3" y="0" class="st22 st23 st24">K !</tspan></text>
	</g>
	<g class="st0">
		<text transform="matrix(1 0 0 1 28.4746 547.2461)"><tspan x="0" y="0" class="st22 st23 st24">P</tspan><tspan x="5.2" y="0" class="st22 st23 st24">L</tspan><tspan x="10.3" y="0" class="st22 st23 st24">E</tspan><tspan x="15.7" y="0" class="st22 st23 st24">A</tspan><tspan x="20.9" y="0" class="st22 st23 st24">S</tspan><tspan x="26.2" y="0" class="st22 st23 st24">E </tspan><tspan x="36.6" y="0" class="st22 st23 st24">D</tspan><tspan x="41.8" y="0" class="st22 st23 st24">O </tspan><tspan x="52.2" y="0" class="st22 st23 st24">N</tspan><tspan x="57.5" y="0" class="st22 st23 st24">O</tspan><tspan x="62.8" y="0" class="st22 st23 st24">T </tspan><tspan x="73.1" y="0" class="st22 st23 st24">R</tspan><tspan x="78.4" y="0" class="st22 st23 st24">E</tspan><tspan x="83.6" y="0" class="st22 st23 st24">M</tspan><tspan x="89" y="0" class="st22 st23 st24">O</tspan><tspan x="94.1" y="0" class="st22 st23 st24">V</tspan><tspan x="99.4" y="0" class="st22 st23 st24">E </tspan><tspan x="109.7" y="0" class="st22 st23 st24">S</tspan><tspan x="115" y="0" class="st22 st23 st24">L</tspan><tspan x="120" y="0" class="st22 st23 st24">I</tspan><tspan x="125" y="0" class="st22 st23 st24">P F</tspan><tspan x="140.5" y="0" class="st22 st23 st24">RO</tspan><tspan x="151.1" y="0" class="st22 st23 st24">M </tspan><tspan x="161.5" y="0" class="st22 st23 st24">B</tspan><tspan x="166.8" y="0" class="st22 st23 st24">O</tspan><tspan x="172.2" y="0" class="st22 st23 st24">O</tspan><tspan x="177.5" y="0" class="st22 st23 st24">K</tspan></text>
	</g>
	<line class="st25" x1="-5" y1="230" x2="247" y2="230"/>
	<line class="st25" x1="-5" y1="284.3" x2="247" y2="284.3"/>
	<line class="st25" x1="-5" y1="326.3" x2="246" y2="326.3"/>
	<line class="st25" x1="-5" y1="358" x2="246" y2="358"/>
	<g class="st0">
		<defs>
			<rect id="SVGID_37_" x="-23" y="-29" width="792" height="612"/>
		</defs>
		<clipPath id="SVGID_38_">
			<use xlink:href="#SVGID_37_"  style="overflow:visible;"/>
		</clipPath>
		<g class="st26">
			<g>
				<defs>
					<rect id="SVGID_39_" x="11.2" y="359.7" width="59.8" height="9.6"/>
				</defs>
				<clipPath id="SVGID_40_">
					<use xlink:href="#SVGID_39_"  style="overflow:visible;"/>
				</clipPath>
				<g class="st27">
					<text transform="matrix(1 0 0 1 35.2798 366.9707)"><tspan x="0" y="0" class="st28 st29">T</tspan><tspan x="2.7" y="0" class="st28 st29">A</tspan><tspan x="5.6" y="0" class="st28 st29">G</tspan><tspan x="8.6" y="0" class="st28 st29">S</tspan></text>
				</g>
			</g>
		</g>
		<g class="st26">
			<g>
				<defs>
					<rect id="SVGID_41_" x="7.3" y="323.9" width="10.8" height="36.6"/>
				</defs>
				<clipPath id="SVGID_42_">
					<use xlink:href="#SVGID_41_"  style="overflow:visible;"/>
				</clipPath>
				<g class="st30">
					<text transform="matrix(-6.123234e-17 -1 1 -6.123234e-17 15.3617 351.2446)"><tspan x="0" y="0" class="st28 st29">S</tspan><tspan x="3" y="0" class="st28 st29">O</tspan><tspan x="6.1" y="0" class="st28 st29">U</tspan><tspan x="9.1" y="0" class="st28 st29">R</tspan><tspan x="12.1" y="0" class="st28 st29">C</tspan><tspan x="15.1" y="0" class="st28 st29">E</tspan></text>
				</g>
			</g>
		</g>
		<g class="st26">
			<g>
				<defs>
					<rect id="SVGID_43_" x="7.3" y="284.8" width="10.8" height="42"/>
				</defs>
				<clipPath id="SVGID_44_">
					<use xlink:href="#SVGID_43_"  style="overflow:visible;"/>
				</clipPath>
				<g class="st31">
					<text transform="matrix(-6.123234e-17 -1 1 -6.123234e-17 15.3617 319.2651)"><tspan x="0" y="0" class="st28 st29">P</tspan><tspan x="3" y="0" class="st28 st29">U</tspan><tspan x="6.1" y="0" class="st28 st29">B</tspan><tspan x="9.1" y="0" class="st28 st29">L</tspan><tspan x="12" y="0" class="st28 st29">I</tspan><tspan x="14.9" y="0" class="st28 st29">S</tspan><tspan x="17.9" y="0" class="st28 st29">H</tspan><tspan x="20.9" y="0" class="st28 st29">E</tspan><tspan x="23.9" y="0" class="st28 st29">R</tspan></text>
				</g>
			</g>
		</g>
		<g class="st26">
			<g>
				<defs>
					<rect id="SVGID_45_" x="7.3" y="235.5" width="10.8" height="44.3"/>
				</defs>
				<clipPath id="SVGID_46_">
					<use xlink:href="#SVGID_45_"  style="overflow:visible;"/>
				</clipPath>
				<g class="st32">
					<text transform="matrix(-6.123234e-17 -1 1 -6.123234e-17 15.3615 270.5688)"><tspan x="0" y="0" class="st28 st29">A</tspan><tspan x="3" y="0" class="st28 st29">UT</tspan><tspan x="9.1" y="0" class="st28 st29">H</tspan><tspan x="12.1" y="0" class="st28 st29">O</tspan><tspan x="15.1" y="0" class="st28 st29">R</tspan><tspan x="17.9" y="0" class="st28 st29">(</tspan><tspan x="20.3" y="0" class="st28 st29">S</tspan><tspan x="22.8" y="0" class="st28 st29">)</tspan></text>
				</g>
			</g>
		</g>
		<g class="st26">
			<g>
				<defs>
					<rect id="SVGID_47_" x="136" y="358.5" width="56" height="13.3"/>
				</defs>
				<clipPath id="SVGID_48_">
					<use xlink:href="#SVGID_47_"  style="overflow:visible;"/>
				</clipPath>
				<g class="st33">
					<text transform="matrix(1 0 0 1 147.7515 367.7539)"><tspan x="0" y="0" class="st28 st29">T</tspan><tspan x="2.9" y="0" class="st28 st29">O</tspan><tspan x="5.9" y="0" class="st28 st29">P</tspan><tspan x="8.8" y="0" class="st28 st29">I</tspan><tspan x="11.7" y="0" class="st28 st29">C </tspan><tspan x="17.5" y="0" class="st28 st29">R</tspan><tspan x="20.6" y="0" class="st28 st29">A</tspan><tspan x="23.6" y="0" class="st28 st29">D</tspan><tspan x="26.6" y="0" class="st28 st29">A</tspan><tspan x="29.6" y="0" class="st28 st29">R</tspan></text>
				</g>
			</g>
		</g>
		<g class="st26">
			<g>
				<defs>
					<rect id="SVGID_49_" x="7.3" y="182.5" width="10.8" height="27.8"/>
				</defs>
				<clipPath id="SVGID_50_">
					<use xlink:href="#SVGID_49_"  style="overflow:visible;"/>
				</clipPath>
				<g class="st34">
					<text transform="matrix(-6.123234e-17 -1 1 -6.123234e-17 15.3615 203.8667)"><tspan x="0" y="0" class="st28 st29">TI</tspan><tspan x="6" y="0" class="st28 st29">T</tspan><tspan x="9" y="0" class="st28 st29">L</tspan><tspan x="12" y="0" class="st28 st29">E</tspan></text>
				</g>
			</g>
		</g>
	</g>
</g>
</svg>
